# File created by Blade
# Date/Time:  Mon Sep 22 17:23:16 2014
# Frame Rate: 120.000 fps
#------------------------------------------------------
:FULLY-SPECIFIED
:DEGREES
3518
root 1.335927 39.367980 -0.908075 30.457563 -20.437699 -46.618518
RightUpLeg 0.603999 -13.818122 -27.429659
RightLeg 91.875103 -0.000000 -0.000000
RightFoot 2.865824 -25.372279 14.726408
RightToeBase 1.563392 -0.000000 -0.000000
LeftUpLeg -10.728030 8.917059 37.691407
LeftLeg 21.238715 -0.000000 -0.000000
LeftFoot -22.293851 10.432712 -19.462346
LeftToeBase 7.745586 -0.000000 -0.000000
Spine 2.651003 -8.869961 8.559411
RightShoulder -4.679970 -30.233000 -2.929442
RightArm 15.895348 -9.569297 59.573560
RightForeArm -184.665413 0.000000 110.379490
RightHand 94.697053 -0.000000 -164.986865
RightHandThumb1 -24.326973 -0.000000 -32.862282
LeftShoulder -25.441750 34.439328 9.853998
LeftArm 67.695124 -34.336896 -75.569387
LeftForeArm 61.902223 -0.000000 143.937937
LeftHand -25.191409 0.000000 -22.964209
LeftHandThumb1 -26.253704 0.000000 33.147579
Head 2.243768 33.733604 35.067497
3519
root 1.317845 39.374129 -0.921924 30.603410 -20.604520 -46.878363
RightUpLeg 0.131079 -13.770043 -27.285808
RightLeg 93.353629 -0.000000 -0.000000
RightFoot 1.896257 -25.229758 14.446423
RightToeBase 2.073431 -0.000000 -0.000000
LeftUpLeg -10.576856 8.923716 37.854054
LeftLeg 21.208347 -0.000000 -0.000000
LeftFoot -22.313625 10.829246 -19.307475
LeftToeBase 7.421084 -0.000000 -0.000000
Spine 2.654819 -8.571551 8.661509
RightShoulder -4.681651 -30.270808 -2.999088
RightArm 15.898814 -9.601297 59.604276
RightForeArm -184.665802 0.000000 110.459404
RightHand 94.680915 -0.000000 -164.976743
RightHandThumb1 -24.326973 -0.000000 -32.862282
LeftShoulder -25.596486 34.406443 9.763883
LeftArm 67.995175 -34.304980 -75.569285
LeftForeArm 61.832353 -0.000000 143.733550
LeftHand -25.120856 -0.000000 -23.176053
LeftHandThumb1 -26.253704 0.000000 33.147579
Head 2.084952 33.795860 34.935009
3520
root 1.303625 39.378955 -0.940356 30.706609 -20.769585 -47.080023
RightUpLeg -0.335296 -13.781630 -27.261867
RightLeg 95.089827 -0.000000 -0.000000
RightFoot 1.719391 -24.929126 13.987324
RightToeBase 1.159848 -0.000000 -0.000000
LeftUpLeg -10.425275 8.833435 37.959895
LeftLeg 21.140722 -0.000000 -0.000000
LeftFoot -22.301237 11.325683 -19.120639
LeftToeBase 6.935277 -0.000000 -0.000000
Spine 2.707219 -8.293981 8.692365
RightShoulder -4.671740 -30.279179 -3.050649
RightArm 15.885238 -9.638578 59.629752
RightForeArm -184.717288 -0.000000 110.538668
RightHand 94.686986 -0.000000 -164.949807
RightHandThumb1 -24.326973 -0.000000 -32.862282
LeftShoulder -25.764569 34.377793 9.648179
LeftArm 68.385034 -34.291235 -75.544259
LeftForeArm 61.758133 -0.000000 143.472885
LeftHand -25.178724 -0.000000 -23.309836
LeftHandThumb1 -26.253704 0.000000 33.147579
Head 1.873340 33.828732 34.777345
3521
root 1.293065 39.384600 -0.966013 30.764293 -20.794866 -47.253621
RightUpLeg -0.707307 -13.952525 -27.262802
RightLeg 97.058854 -0.000000 -0.000000
RightFoot 1.922375 -24.565574 13.859084
RightToeBase 0.431072 -0.000000 -0.000000
LeftUpLeg -10.366273 8.566066 38.107925
LeftLeg 21.109644 -0.000000 -0.000000
LeftFoot -22.303855 11.852170 -18.926490
LeftToeBase 6.513419 -0.000000 -0.000000
Spine 2.821386 -8.160815 8.808641
RightShoulder -4.630289 -30.315187 -3.170646
RightArm 15.939804 -9.614112 59.677520
RightForeArm -184.659229 -0.000000 110.605781
RightHand 94.632699 -0.000000 -165.066446
RightHandThumb1 -24.326973 -0.000000 -32.862282
LeftShoulder -25.858810 34.256257 9.574738
LeftArm 68.647410 -34.314467 -75.491321
LeftForeArm 61.637809 -0.000000 143.186765
LeftHand -25.206728 -0.000000 -23.341272
LeftHandThumb1 -26.253704 0.000000 33.147579
Head 1.642995 33.906116 34.538884
